<?xml version="1.0" encoding="utf-8"?>
<!-- Generator: Adobe Illustrator 16.0.0, SVG Export Plug-In . SVG Version: 6.00 Build 0)  -->
<!DOCTYPE svg PUBLIC "-//W3C//DTD SVG 1.1//EN" "http://www.w3.org/Graphics/SVG/1.1/DTD/svg11.dtd" [
	<!ENTITY ns_extend "http://ns.adobe.com/Extensibility/1.0/">
	<!ENTITY ns_ai "http://ns.adobe.com/AdobeIllustrator/10.0/">
	<!ENTITY ns_graphs "http://ns.adobe.com/Graphs/1.0/">
	<!ENTITY ns_vars "http://ns.adobe.com/Variables/1.0/">
	<!ENTITY ns_imrep "http://ns.adobe.com/ImageReplacement/1.0/">
	<!ENTITY ns_sfw "http://ns.adobe.com/SaveForWeb/1.0/">
	<!ENTITY ns_custom "http://ns.adobe.com/GenericCustomNamespace/1.0/">
	<!ENTITY ns_adobe_xpath "http://ns.adobe.com/XPath/1.0/">
]>
<svg version="1.1" id="Layer_1" xmlns:x="&ns_extend;" xmlns:i="&ns_ai;" xmlns:graph="&ns_graphs;"
	 xmlns="http://www.w3.org/2000/svg" xmlns:xlink="http://www.w3.org/1999/xlink" x="0px" y="0px" width="1024px" height="1024px"
	 viewBox="0 0 1024 1024" enable-background="new 0 0 1024 1024" xml:space="preserve">
<metadata>
	<sfw  xmlns="&ns_sfw;">
		<slices></slices>
		<sliceSourceBounds  width="923.438" height="929" y="33.5" x="49.781" bottomLeftOrigin="true"></sliceSourceBounds>
		<optimizationSettings>
			<targetSettings  fileFormat="PNG24Format" targetSettingsID="0">
				<PNG24Format  transparency="true" interlaced="false" noMatteColor="false" matteColor="#FFFFFF" filtered="false">
					</PNG24Format>
			</targetSettings>
		</optimizationSettings>
	</sfw>
</metadata>
<g id="Layer_2">
	<polygon fill="#D50000" points="674.099,373.73 956.929,641.077 627.65,967.258 333.466,682.366 	"/>
</g>
<g id="Layer_3">
	<polygon fill="#714126" points="645.197,330.377 397.119,90.902 68.185,415.709 321.424,659.314 	"/>
</g>
<g id="Layer_1_1_">
	<g id="_x23_ffffffff" display="none">
	</g>
	<g id="_x23_000000ff">
		<path d="M395.111,62h9.785c13.129,10.818,24.563,23.492,36.703,35.344c64.947,64.742,129.441,129.979,194.681,194.429
			c8.586-7.928,15.771-18.498,27.127-22.667c8.508-1.281,14.819,5.985,20.521,11.106c29.479,29.728,59.127,59.333,88.896,88.811
			c4.5,5.327,11.521,10.819,9.622,18.746c-2.896,14.204-19.983,15.732-30.81,21.306C818.49,476.292,885.5,543.348,952.759,610.15
			c9.08,9.541,22.546,18.989,20.808,33.94c0.25,7.967-4.948,14.49-10.15,19.942C869.025,758.168,774.849,852.599,680.5,946.82
			c-15.569,14.944-29.52,31.832-47.4,44.18H618.48c-12.963-7.677-22.791-19.24-33.356-29.729
			c-63.875-64.123-128.122-127.91-191.911-192.16c-4.543,8.258-6.732,19.528-16.353,23.494
			c-11.313,3.594-18.787-7.432-26.098-13.914c-29.809-30.888-61.396-60.118-90.586-91.537
			c-10.901-16.313,10.361-28.033,19.446-38.896C212.86,581.245,145.888,514.443,79.002,447.553
			c-8.96-9.248-18.871-17.63-26.672-27.91c-5.08-8.466,0.082-18.292,6.811-24.071C160.423,294.58,261.416,193.257,362.573,92.141
			C373.104,81.778,383.012,70.588,395.111,62 M398.827,103.412c-20.314,19.654-39.844,40.094-60.034,59.869
			c-2.396,3.262-10.283,8.383-4.626,12.304c21.224,21.801,43.104,43.024,64.494,64.659c23.246-22.997,46.245-46.201,69.365-69.282
			C444.532,148.955,423.31,124.222,398.827,103.412 M422.898,264.192c19.733,20.065,39.307,40.339,60.031,59.373
			c22.667-23.122,45.544-46.036,68.663-68.746c-19.857-20.191-40.256-39.928-59.909-60.324
			C468.852,217.783,444.657,239.873,422.898,264.192 M258.196,244.25l0.827,2.64c21.386,22.917,44.426,44.263,66.145,66.889
			c16.308-16.638,33.402-32.452,49.174-49.587c-21.512-23.866-45.292-45.583-67.713-68.582
			C290.567,211.878,273.968,227.692,258.196,244.25 M183.34,318.735c22.583,22.957,45.707,45.417,68.167,68.538
			c16.681-16.473,33.196-33.194,49.92-49.629c-22.255-23.369-45.542-45.663-68.126-68.703
			C216.577,285.497,200.104,302.22,183.34,318.735 M506.012,347.472c12.342,12.469,24.814,24.814,37.202,37.243
			c23.245-22.956,46.204-46.162,69.321-69.201c-12.59-12.262-24.813-24.814-37.363-37.077
			C552.047,301.393,529.092,324.472,506.012,347.472 M349.363,337.81c19.365,19.366,38.521,38.979,58.176,58.051l2.682-0.082
			c16.562-15.566,32.123-32.247,48.312-48.184c-19.861-20.108-39.845-40.092-59.951-59.992
			C382.313,304.449,364.433,319.89,349.363,337.81 M90.563,411.883c23,22.335,44.757,45.954,68.375,67.548
			c23.08-21.636,45.047-44.51,67.384-66.929l0.125-3.179c-22.047-22.544-44.551-44.634-66.847-66.889
			C136.724,365.722,113.354,388.513,90.563,411.883 M275.29,410.561c19.901,20.314,40.133,40.342,60.282,60.447
			c16.392-16.845,33.156-33.316,49.712-49.959c-20.067-20.023-39.967-40.131-60.158-60.034
			C308.487,377.489,292.137,394.293,275.29,410.561 M481.735,371.915c-16.644,16.145-32.742,32.823-49.179,49.092
			c12.39,12.428,24.98,24.69,37.121,37.366c16.228-16.722,33.402-32.535,49.174-49.67
			C507.251,395.779,495.277,382.773,481.735,371.915 M631.613,452.14c-13.004,46.078-25.765,92.198-38.813,138.276
			c-1.53,9.373-11.021,12.92-19.034,15.068c-45.623,13.334-90.96,27.455-136.584,40.752c-10.484,29.313-23.039,58.137-31.175,88.146
			c73.041,73.25,145.999,146.701,219.577,219.414c103.017-102.105,205.331-204.963,307.895-307.563
			c5.733-3.926-2.104-9.122-4.5-12.308C857.957,563.165,787.106,492.188,716.3,421.214
			C688.14,431.741,659.898,441.98,631.613,452.14 M251.507,434.384c-22.335,23.494-46.533,45.334-68.209,69.407
			c18.788,20.768,39.515,39.723,59.044,59.787c23.411-22.793,46.203-46.163,69.531-69.036
			C291.724,474.519,271.739,454.284,251.507,434.384 M407.456,446.441c-16.598,15.522-32.248,32.081-48.308,48.183
			c12.305,12.099,24.193,24.61,36.583,36.626c17.96-15.031,33.192-33.073,50.288-49.135c-11.811-11.977-23.203-24.444-35.759-35.674
			H407.456 M266.619,587.031c11.395,13.086,23.907,25.265,36.789,36.867c23.162-21.6,45.17-44.507,67.548-66.888l-0.125-3.225
			c-11.354-12.258-23.658-23.532-35.26-35.548C312.451,540.99,289.411,563.91,266.619,587.031z"/>
	</g>
</g>
</svg>
